<?xml version="1.0" encoding="utf-8"?>
<!-- Generator: Adobe Illustrator 23.0.1, SVG Export Plug-In . SVG Version: 6.00 Build 0)  -->
<svg version="1.1" id="Layer_1" xmlns="http://www.w3.org/2000/svg" xmlns:xlink="http://www.w3.org/1999/xlink" x="0px" y="0px"
	 viewBox="0 0 153.59 154.97" style="enable-background:new 0 0 153.59 154.97;" xml:space="preserve">
<g>
	<path d="M2.55,71.1C2.86,43.62,28.05,3.09,76.04,2.56c44.63-0.49,73.28,35.74,75.01,68.43c-14.92,0-29.82,0-45.07,0
		c-5.08-13.87-14.44-22.68-30.22-21.47c-13.22,1.01-21.1,9.23-25.19,21.58C34.61,71.1,18.72,71.1,2.55,71.1z"/>
	<path d="M2.54,83.9c16.02,0,31.76,0,47.75,0c4.96,13.66,14.01,22.39,29.34,21.59c13.6-0.71,22-8.7,26.2-21.57
		c15.06,0,29.97,0,44.88,0c0.42,25.03-23.43,66.82-71.78,68.44C31.73,153.94,3.22,114.42,2.54,83.9z"/>
	<path d="M78.25,93.15c-8.74,0-15.72-6.87-15.79-15.53c-0.07-8.85,7.07-15.89,16-15.8c8.7,0.09,15.69,7.16,15.6,15.77
		C93.98,86.27,86.99,93.15,78.25,93.15z"/>
</g>
</svg>
